<?xml version="1.0" standalone="no"?>
<!DOCTYPE svg PUBLIC "-//W3C//DTD SVG 20010904//EN"
 "http://www.w3.org/TR/2001/REC-SVG-20010904/DTD/svg10.dtd">
<svg version="1.0" xmlns="http://www.w3.org/2000/svg"
 width="1090.000000pt" height="306.000000pt" viewBox="0 0 1090.000000 306.000000"
 preserveAspectRatio="xMidYMid meet">

<g transform="translate(0.000000,306.000000) scale(0.100000,-0.100000)"
fill="#000000" stroke="none">
<path d="M1415 2500 c-204 -23 -285 -63 -285 -138 0 -59 41 -87 175 -118 67
-16 121 -19 335 -19 289 0 313 5 318 62 5 50 -25 64 -113 53 -140 -18 -490 -7
-529 17 -18 11 32 22 161 34 145 13 314 6 446 -17 101 -19 109 -26 127 -119 6
-33 14 -68 16 -77 8 -28 -27 -35 -223 -49 -198 -13 -417 -4 -618 27 -100 15
-113 15 -147 1 -48 -20 -74 -63 -89 -147 -16 -90 -7 -131 36 -169 40 -35 43
-36 182 -56 196 -29 433 -38 637 -26 161 10 191 10 203 -2 13 -12 8 -75 -31
-463 -25 -247 -48 -473 -52 -502 -11 -104 -62 -131 -269 -139 -136 -6 -247 8
-285 35 -53 38 -58 64 -106 533 -25 244 -50 456 -56 471 -16 43 -76 49 -97 10
-10 -19 81 -930 99 -993 34 -122 168 -167 470 -156 160 5 213 18 272 67 72 59
73 66 132 634 32 312 58 522 65 529 6 6 30 18 53 27 27 10 51 28 66 50 21 31
23 43 19 107 -8 103 -35 159 -90 183 -25 11 -49 25 -54 32 -6 7 -18 55 -26
107 -9 51 -23 103 -31 116 -20 31 -87 60 -182 80 -94 20 -407 28 -529 15z
m-140 -467 c141 -25 602 -25 754 0 137 22 156 22 175 -5 17 -24 21 -75 8 -95
-25 -39 -206 -58 -557 -58 -293 0 -519 19 -552 47 -16 13 -17 54 -2 96 10 30
30 42 59 36 8 -1 60 -11 115 -21z"/>
<path d="M3026 1975 c-9 -9 -16 -22 -16 -28 0 -7 -14 -178 -32 -380 -23 -268
-29 -373 -22 -385 14 -22 67 -27 83 -9 10 12 17 13 49 1 136 -48 356 31 419
150 23 44 20 143 -5 193 -19 37 -57 76 -82 85 -5 2 3 27 17 57 17 33 29 76 31
112 4 49 0 65 -22 103 -46 78 -155 109 -275 76 -24 -6 -44 -10 -45 -8 -22 47
-70 63 -100 33z m312 -150 c29 -34 30 -93 2 -128 -25 -32 -113 -65 -191 -74
l-59 -6 7 79 c10 122 12 126 69 147 68 24 141 17 172 -18z m-9 -301 c50 -10
81 -49 81 -101 0 -38 -5 -49 -43 -87 -57 -57 -124 -80 -218 -74 -38 2 -74 9
-80 15 -13 13 3 199 18 214 12 12 126 37 174 38 20 1 50 -2 68 -5z"/>
<path d="M8434 1982 c-25 -16 -33 -57 -53 -267 -28 -288 -29 -296 -34 -301 -2
-3 -17 -8 -33 -13 l-29 -8 0 111 c0 96 -3 117 -24 159 -33 68 -61 80 -169 71
-48 -3 -101 -12 -118 -19 -83 -34 -158 -146 -173 -260 -8 -54 -14 -66 -60
-119 -32 -36 -115 -76 -158 -76 -19 0 -43 9 -60 24 -28 24 -28 25 -28 143 0
107 3 123 26 168 14 28 33 51 42 53 15 3 17 -6 17 -62 0 -71 14 -96 54 -96 37
0 57 32 67 109 4 39 6 77 3 86 -9 23 -95 75 -123 75 -46 -1 -108 -36 -135 -77
-50 -76 -70 -148 -70 -264 -1 -98 1 -109 29 -164 40 -78 76 -98 166 -92 51 3
81 12 136 41 39 21 79 46 88 56 16 18 18 17 49 -23 45 -59 87 -81 160 -81 86
0 133 19 191 79 43 44 57 53 99 58 l48 7 -7 -154 c-11 -231 10 -322 87 -379
35 -26 104 -27 141 -2 16 10 40 41 55 69 25 47 27 60 27 166 0 103 -3 120 -25
166 l-25 51 47 26 47 26 -6 -157 c-8 -233 19 -322 111 -357 37 -14 51 -15 80
-5 76 25 126 123 126 250 0 67 -21 156 -45 194 -13 20 -10 23 39 52 l54 32 11
-39 c16 -52 63 -105 108 -120 71 -23 182 9 249 73 l31 29 23 -37 c49 -78 155
-93 267 -39 64 32 103 77 148 172 42 86 43 106 10 121 -35 16 -52 6 -66 -36
-20 -65 -83 -138 -144 -167 -85 -42 -130 -18 -142 75 -6 40 -5 40 27 40 76 0
153 75 184 180 30 100 13 173 -46 210 -37 24 -104 21 -144 -5 -63 -41 -106
-139 -124 -281 -7 -55 -19 -101 -31 -121 -45 -73 -143 -131 -197 -116 -26 6
-47 42 -57 96 -7 36 -7 37 24 37 41 0 102 31 134 69 60 72 86 220 50 282 -19
31 -68 59 -105 59 -12 0 -42 -9 -65 -20 -71 -32 -123 -134 -139 -271 -6 -58
-9 -63 -53 -95 -48 -35 -138 -74 -171 -74 -25 0 -26 -11 10 355 l29 300 -21
18 c-44 38 -91 8 -101 -64 -3 -24 -15 -145 -27 -269 -24 -255 -21 -246 -119
-299 -55 -29 -141 -51 -141 -37 0 4 14 152 31 329 l30 322 -21 17 c-23 19 -48
23 -66 10z m834 -354 c31 -31 -1 -128 -52 -159 -41 -25 -46 -24 -46 9 0 64 45
162 74 162 6 0 17 -5 24 -12z m392 -14 c15 -40 -4 -97 -45 -133 -48 -42 -69
-41 -60 2 15 75 26 106 46 131 26 33 47 33 59 0z m-1631 -68 c0 -84 14 -126
60 -178 17 -20 31 -40 31 -46 0 -14 -58 -57 -87 -66 -33 -11 -89 18 -109 56
-40 74 -7 217 63 278 18 17 36 30 38 30 2 0 4 -33 4 -74z m150 43 c13 -38 14
-128 2 -147 -6 -10 -13 -5 -29 20 -30 49 -38 103 -18 133 22 33 32 32 45 -6z
m688 -460 c33 -50 42 -147 20 -201 -18 -43 -60 -69 -80 -49 -15 15 -22 149
-12 236 6 56 8 62 26 58 11 -3 32 -23 46 -44z m-358 15 c31 -40 44 -90 39
-160 -3 -53 -9 -69 -30 -91 -63 -63 -92 23 -72 216 6 49 10 61 25 61 10 0 27
-12 38 -26z"/>
<path d="M6022 1752 c-86 -25 -161 -171 -162 -315 -1 -80 -76 -197 -128 -197
l-25 0 9 123 c5 67 8 151 8 187 0 114 -60 190 -149 190 -53 0 -96 -28 -138
-90 -33 -49 -35 -50 -41 -26 -9 36 -55 87 -93 102 -69 29 -124 13 -186 -55
l-36 -40 -7 32 c-9 44 -22 57 -55 57 -41 0 -62 -26 -55 -69 16 -93 17 -261 2
-366 -15 -108 -15 -110 6 -128 24 -20 71 -22 87 -4 6 8 16 49 22 91 34 245
118 414 188 376 36 -19 44 -73 38 -242 -5 -148 -5 -159 13 -168 26 -14 66 -13
77 3 6 6 22 66 36 132 30 134 76 238 120 270 28 20 29 20 43 1 18 -26 18 -83
-2 -202 -35 -205 23 -311 155 -283 30 6 64 23 88 44 l40 34 17 -31 c42 -71
155 -85 262 -33 67 33 109 81 151 172 40 86 41 106 8 121 -33 15 -52 6 -60
-29 -4 -16 -26 -55 -50 -88 -32 -44 -57 -66 -99 -86 -86 -42 -131 -18 -143 75
-6 40 -5 40 27 40 100 0 200 135 200 268 0 100 -76 160 -168 134z m58 -138
c15 -40 -4 -97 -45 -133 -48 -42 -69 -41 -60 2 15 75 26 106 46 131 26 33 47
33 59 0z"/>
<path d="M3616 1717 c-26 -19 -65 -208 -73 -347 -5 -104 -4 -121 15 -163 27
-61 69 -83 138 -72 40 6 57 15 95 53 l46 47 29 -32 c54 -58 113 -56 175 6 27
27 40 34 43 24 3 -8 27 -23 52 -35 80 -35 170 -9 260 74 l44 41 0 -35 c0 -28
-11 -45 -75 -110 -98 -100 -148 -199 -153 -303 -4 -93 16 -128 87 -149 61 -18
101 -9 144 31 60 58 107 201 107 329 l0 74 41 21 c83 42 189 162 189 213 0 29
-38 60 -63 50 -8 -3 -27 -23 -42 -43 -14 -21 -46 -53 -70 -70 -39 -28 -46 -30
-52 -16 -9 25 5 191 22 265 19 76 14 107 -20 122 -38 17 -68 -9 -95 -84 -61
-170 -150 -290 -225 -304 -22 -4 -41 -2 -47 4 -30 30 -24 166 12 299 22 80 19
100 -15 109 -56 14 -68 4 -97 -81 -15 -44 -30 -105 -33 -135 -16 -146 -49
-220 -96 -220 -39 0 -37 89 7 288 24 105 25 115 10 137 -20 30 -65 33 -90 6
-9 -10 -32 -79 -50 -152 -19 -74 -43 -159 -55 -189 -38 -100 -112 -155 -127
-94 -10 38 3 148 31 282 14 64 25 120 25 125 0 14 -40 47 -58 47 -10 0 -26 -6
-36 -13z m809 -769 c-21 -82 -51 -130 -79 -126 -18 3 -21 10 -20 43 1 48 39
136 80 185 l29 34 3 -37 c2 -20 -4 -65 -13 -99z"/>
<path d="M6674 1705 c-46 -31 -93 -96 -125 -175 -18 -44 -23 -75 -23 -156 -1
-93 1 -103 26 -142 50 -74 139 -81 223 -17 25 19 47 35 49 35 2 0 7 -11 10
-24 3 -13 22 -38 41 -55 62 -54 148 -40 214 34 37 43 84 133 101 194 10 37 9
46 -6 62 -31 35 -56 20 -79 -46 -41 -116 -81 -165 -136 -165 -23 0 -29 6 -39
36 -15 44 -9 91 32 253 l31 125 -23 18 c-24 19 -80 25 -80 7 0 -6 -14 0 -32
12 -21 15 -50 24 -87 27 -48 3 -62 -1 -97 -23z m126 -96 c32 -12 32 -12 26
-60 -22 -165 -113 -297 -171 -249 -34 28 -11 189 38 261 17 26 55 56 73 59 1
0 16 -5 34 -11z"/>
</g>
</svg>
